<mxfile host="app.diagrams.net" agent="Mozilla/5.0 (X11; Linux x86_64; rv:135.0) Gecko/20100101 Firefox/135.0" version="26.1.1">
  <diagram name="Page-1" id="fFQ6WQgZWspTpNPEQZPx">
    <mxGraphModel dx="2607" dy="1362" grid="1" gridSize="10" guides="1" tooltips="1" connect="1" arrows="1" fold="1" page="1" pageScale="1" pageWidth="850" pageHeight="1100" math="0" shadow="0">
      <root>
        <mxCell id="0" />
        <mxCell id="1" parent="0" />
        <mxCell id="U5_Onp9Ch5R1h0iRhutX-193" value="VPC" style="points=[[0,0],[0.25,0],[0.5,0],[0.75,0],[1,0],[1,0.25],[1,0.5],[1,0.75],[1,1],[0.75,1],[0.5,1],[0.25,1],[0,1],[0,0.75],[0,0.5],[0,0.25]];outlineConnect=0;gradientColor=none;html=1;whiteSpace=wrap;fontSize=12;fontStyle=0;container=1;pointerEvents=0;collapsible=0;recursiveResize=0;shape=mxgraph.aws4.group;grIcon=mxgraph.aws4.group_vpc2;strokeColor=#8C4FFF;fillColor=none;verticalAlign=top;align=left;spacingLeft=30;fontColor=#AAB7B8;dashed=0;" vertex="1" parent="1">
          <mxGeometry x="30" y="250" width="250" height="490" as="geometry" />
        </mxCell>
        <mxCell id="U5_Onp9Ch5R1h0iRhutX-224" value="Public subnet" style="points=[[0,0],[0.25,0],[0.5,0],[0.75,0],[1,0],[1,0.25],[1,0.5],[1,0.75],[1,1],[0.75,1],[0.5,1],[0.25,1],[0,1],[0,0.75],[0,0.5],[0,0.25]];outlineConnect=0;gradientColor=none;html=1;whiteSpace=wrap;fontSize=12;fontStyle=0;container=1;pointerEvents=0;collapsible=0;recursiveResize=0;shape=mxgraph.aws4.group;grIcon=mxgraph.aws4.group_security_group;grStroke=0;strokeColor=#7AA116;fillColor=#F2F6E8;verticalAlign=top;align=left;spacingLeft=30;fontColor=#248814;dashed=0;" vertex="1" parent="U5_Onp9Ch5R1h0iRhutX-193">
          <mxGeometry x="60" y="330" width="130" height="130" as="geometry" />
        </mxCell>
        <mxCell id="U5_Onp9Ch5R1h0iRhutX-201" value="&lt;span style=&quot;&quot;&gt;Network firewall&lt;/span&gt;" style="image;aspect=fixed;html=1;points=[];align=center;fontSize=12;image=img/lib/azure2/networking/Firewalls.svg;labelBackgroundColor=light-dark(#f2f6e8, #ededed);" vertex="1" parent="U5_Onp9Ch5R1h0iRhutX-224">
          <mxGeometry x="29.5" y="40" width="71" height="60" as="geometry" />
        </mxCell>
        <mxCell id="U5_Onp9Ch5R1h0iRhutX-197" value="Subnet" style="sketch=0;outlineConnect=0;gradientColor=none;html=1;whiteSpace=wrap;fontSize=12;fontStyle=0;shape=mxgraph.aws4.group;grIcon=mxgraph.aws4.group_subnet;strokeColor=#879196;fillColor=none;verticalAlign=top;align=left;spacingLeft=30;fontColor=#879196;dashed=0;" vertex="1" parent="U5_Onp9Ch5R1h0iRhutX-193">
          <mxGeometry x="30" y="30" width="190" height="250.00000000000003" as="geometry" />
        </mxCell>
        <mxCell id="U5_Onp9Ch5R1h0iRhutX-225" style="edgeStyle=orthogonalEdgeStyle;rounded=0;orthogonalLoop=1;jettySize=auto;html=1;startArrow=classic;startFill=1;" edge="1" parent="U5_Onp9Ch5R1h0iRhutX-193" source="U5_Onp9Ch5R1h0iRhutX-224" target="U5_Onp9Ch5R1h0iRhutX-197">
          <mxGeometry relative="1" as="geometry" />
        </mxCell>
        <mxCell id="U5_Onp9Ch5R1h0iRhutX-198" value="Security Group" style="fontStyle=0;verticalAlign=top;align=center;spacingTop=-2;fillColor=none;rounded=0;whiteSpace=wrap;html=1;strokeColor=#FF0000;strokeWidth=2;dashed=1;container=0;collapsible=0;expand=0;recursiveResize=0;" vertex="1" parent="U5_Onp9Ch5R1h0iRhutX-193">
          <mxGeometry x="75" y="60" width="100" height="210" as="geometry" />
        </mxCell>
        <mxCell id="U5_Onp9Ch5R1h0iRhutX-196" value="&lt;div&gt;Virtual machine&lt;/div&gt;" style="image;sketch=0;aspect=fixed;html=1;points=[];align=center;fontSize=12;image=img/lib/mscae/Virtual_Machine.svg;" vertex="1" parent="U5_Onp9Ch5R1h0iRhutX-193">
          <mxGeometry x="95.93153846153845" y="89.99883720930234" width="58.139534883720934" height="53.48837209302326" as="geometry" />
        </mxCell>
        <mxCell id="U5_Onp9Ch5R1h0iRhutX-195" value="&lt;div&gt;Virtual machine&lt;/div&gt;" style="image;sketch=0;aspect=fixed;html=1;points=[];align=center;fontSize=12;image=img/lib/mscae/Virtual_Machine.svg;" vertex="1" parent="U5_Onp9Ch5R1h0iRhutX-193">
          <mxGeometry x="95.93153846153845" y="189.99767441860467" width="58.139534883720934" height="53.48837209302326" as="geometry" />
        </mxCell>
        <mxCell id="U5_Onp9Ch5R1h0iRhutX-220" value="&lt;div&gt;Public&lt;/div&gt;&lt;div&gt;internet&lt;/div&gt;" style="sketch=0;outlineConnect=0;fontColor=#232F3E;gradientColor=none;fillColor=#232F3D;strokeColor=none;dashed=0;verticalLabelPosition=bottom;verticalAlign=top;align=center;html=1;fontSize=12;fontStyle=0;aspect=fixed;pointerEvents=1;shape=mxgraph.aws4.internet;" vertex="1" parent="1">
          <mxGeometry x="373" y="980" width="104" height="64" as="geometry" />
        </mxCell>
        <mxCell id="U5_Onp9Ch5R1h0iRhutX-234" style="edgeStyle=orthogonalEdgeStyle;rounded=0;orthogonalLoop=1;jettySize=auto;html=1;startArrow=classic;startFill=1;curved=1;" edge="1" parent="1" target="U5_Onp9Ch5R1h0iRhutX-220">
          <mxGeometry relative="1" as="geometry">
            <mxPoint x="199" y="799.9999999999999" as="sourcePoint" />
            <mxPoint x="425" y="990" as="targetPoint" />
            <Array as="points">
              <mxPoint x="425" y="800" />
            </Array>
          </mxGeometry>
        </mxCell>
        <mxCell id="U5_Onp9Ch5R1h0iRhutX-237" value="VPC" style="points=[[0,0],[0.25,0],[0.5,0],[0.75,0],[1,0],[1,0.25],[1,0.5],[1,0.75],[1,1],[0.75,1],[0.5,1],[0.25,1],[0,1],[0,0.75],[0,0.5],[0,0.25]];outlineConnect=0;gradientColor=none;html=1;whiteSpace=wrap;fontSize=12;fontStyle=0;container=1;pointerEvents=0;collapsible=0;recursiveResize=0;shape=mxgraph.aws4.group;grIcon=mxgraph.aws4.group_vpc2;strokeColor=#8C4FFF;fillColor=none;verticalAlign=top;align=left;spacingLeft=30;fontColor=#AAB7B8;dashed=0;" vertex="1" parent="1">
          <mxGeometry x="300" y="250" width="250" height="490" as="geometry" />
        </mxCell>
        <mxCell id="U5_Onp9Ch5R1h0iRhutX-238" value="Public subnet" style="points=[[0,0],[0.25,0],[0.5,0],[0.75,0],[1,0],[1,0.25],[1,0.5],[1,0.75],[1,1],[0.75,1],[0.5,1],[0.25,1],[0,1],[0,0.75],[0,0.5],[0,0.25]];outlineConnect=0;gradientColor=none;html=1;whiteSpace=wrap;fontSize=12;fontStyle=0;container=1;pointerEvents=0;collapsible=0;recursiveResize=0;shape=mxgraph.aws4.group;grIcon=mxgraph.aws4.group_security_group;grStroke=0;strokeColor=#7AA116;fillColor=#F2F6E8;verticalAlign=top;align=left;spacingLeft=30;fontColor=#248814;dashed=0;" vertex="1" parent="U5_Onp9Ch5R1h0iRhutX-237">
          <mxGeometry x="60" y="330" width="130" height="130" as="geometry" />
        </mxCell>
        <mxCell id="U5_Onp9Ch5R1h0iRhutX-239" value="&lt;span style=&quot;&quot;&gt;Network firewall&lt;/span&gt;" style="image;aspect=fixed;html=1;points=[];align=center;fontSize=12;image=img/lib/azure2/networking/Firewalls.svg;labelBackgroundColor=light-dark(#f2f6e8, #ededed);" vertex="1" parent="U5_Onp9Ch5R1h0iRhutX-238">
          <mxGeometry x="29.5" y="40" width="71" height="60" as="geometry" />
        </mxCell>
        <mxCell id="U5_Onp9Ch5R1h0iRhutX-240" value="Subnet" style="sketch=0;outlineConnect=0;gradientColor=none;html=1;whiteSpace=wrap;fontSize=12;fontStyle=0;shape=mxgraph.aws4.group;grIcon=mxgraph.aws4.group_subnet;strokeColor=#879196;fillColor=none;verticalAlign=top;align=left;spacingLeft=30;fontColor=#879196;dashed=0;" vertex="1" parent="U5_Onp9Ch5R1h0iRhutX-237">
          <mxGeometry x="30" y="30" width="190" height="250.00000000000003" as="geometry" />
        </mxCell>
        <mxCell id="U5_Onp9Ch5R1h0iRhutX-241" style="edgeStyle=orthogonalEdgeStyle;rounded=0;orthogonalLoop=1;jettySize=auto;html=1;startArrow=classic;startFill=1;" edge="1" parent="U5_Onp9Ch5R1h0iRhutX-237" source="U5_Onp9Ch5R1h0iRhutX-238" target="U5_Onp9Ch5R1h0iRhutX-240">
          <mxGeometry relative="1" as="geometry" />
        </mxCell>
        <mxCell id="U5_Onp9Ch5R1h0iRhutX-242" value="Security Group" style="fontStyle=0;verticalAlign=top;align=center;spacingTop=-2;fillColor=none;rounded=0;whiteSpace=wrap;html=1;strokeColor=#FF0000;strokeWidth=2;dashed=1;container=0;collapsible=0;expand=0;recursiveResize=0;" vertex="1" parent="U5_Onp9Ch5R1h0iRhutX-237">
          <mxGeometry x="75" y="60" width="100" height="210" as="geometry" />
        </mxCell>
        <mxCell id="U5_Onp9Ch5R1h0iRhutX-243" value="&lt;div&gt;Virtual machine&lt;/div&gt;" style="image;sketch=0;aspect=fixed;html=1;points=[];align=center;fontSize=12;image=img/lib/mscae/Virtual_Machine.svg;" vertex="1" parent="U5_Onp9Ch5R1h0iRhutX-237">
          <mxGeometry x="95.93153846153845" y="89.99883720930234" width="58.139534883720934" height="53.48837209302326" as="geometry" />
        </mxCell>
        <mxCell id="U5_Onp9Ch5R1h0iRhutX-244" value="&lt;div&gt;Virtual machine&lt;/div&gt;" style="image;sketch=0;aspect=fixed;html=1;points=[];align=center;fontSize=12;image=img/lib/mscae/Virtual_Machine.svg;" vertex="1" parent="U5_Onp9Ch5R1h0iRhutX-237">
          <mxGeometry x="95.93153846153845" y="189.99767441860467" width="58.139534883720934" height="53.48837209302326" as="geometry" />
        </mxCell>
        <mxCell id="U5_Onp9Ch5R1h0iRhutX-245" value="VPC" style="points=[[0,0],[0.25,0],[0.5,0],[0.75,0],[1,0],[1,0.25],[1,0.5],[1,0.75],[1,1],[0.75,1],[0.5,1],[0.25,1],[0,1],[0,0.75],[0,0.5],[0,0.25]];outlineConnect=0;gradientColor=none;html=1;whiteSpace=wrap;fontSize=12;fontStyle=0;container=1;pointerEvents=0;collapsible=0;recursiveResize=0;shape=mxgraph.aws4.group;grIcon=mxgraph.aws4.group_vpc2;strokeColor=#8C4FFF;fillColor=none;verticalAlign=top;align=left;spacingLeft=30;fontColor=#AAB7B8;dashed=0;" vertex="1" parent="1">
          <mxGeometry x="570" y="250" width="250" height="490" as="geometry" />
        </mxCell>
        <mxCell id="U5_Onp9Ch5R1h0iRhutX-246" value="Public subnet" style="points=[[0,0],[0.25,0],[0.5,0],[0.75,0],[1,0],[1,0.25],[1,0.5],[1,0.75],[1,1],[0.75,1],[0.5,1],[0.25,1],[0,1],[0,0.75],[0,0.5],[0,0.25]];outlineConnect=0;gradientColor=none;html=1;whiteSpace=wrap;fontSize=12;fontStyle=0;container=1;pointerEvents=0;collapsible=0;recursiveResize=0;shape=mxgraph.aws4.group;grIcon=mxgraph.aws4.group_security_group;grStroke=0;strokeColor=#7AA116;fillColor=#F2F6E8;verticalAlign=top;align=left;spacingLeft=30;fontColor=#248814;dashed=0;" vertex="1" parent="U5_Onp9Ch5R1h0iRhutX-245">
          <mxGeometry x="60" y="330" width="130" height="130" as="geometry" />
        </mxCell>
        <mxCell id="U5_Onp9Ch5R1h0iRhutX-247" value="&lt;span style=&quot;&quot;&gt;Network firewall&lt;/span&gt;" style="image;aspect=fixed;html=1;points=[];align=center;fontSize=12;image=img/lib/azure2/networking/Firewalls.svg;labelBackgroundColor=light-dark(#f2f6e8, #ededed);" vertex="1" parent="U5_Onp9Ch5R1h0iRhutX-246">
          <mxGeometry x="29.5" y="40" width="71" height="60" as="geometry" />
        </mxCell>
        <mxCell id="U5_Onp9Ch5R1h0iRhutX-248" value="Subnet" style="sketch=0;outlineConnect=0;gradientColor=none;html=1;whiteSpace=wrap;fontSize=12;fontStyle=0;shape=mxgraph.aws4.group;grIcon=mxgraph.aws4.group_subnet;strokeColor=#879196;fillColor=none;verticalAlign=top;align=left;spacingLeft=30;fontColor=#879196;dashed=0;" vertex="1" parent="U5_Onp9Ch5R1h0iRhutX-245">
          <mxGeometry x="30" y="30" width="190" height="250.00000000000003" as="geometry" />
        </mxCell>
        <mxCell id="U5_Onp9Ch5R1h0iRhutX-249" style="edgeStyle=orthogonalEdgeStyle;rounded=0;orthogonalLoop=1;jettySize=auto;html=1;startArrow=classic;startFill=1;" edge="1" parent="U5_Onp9Ch5R1h0iRhutX-245" source="U5_Onp9Ch5R1h0iRhutX-246" target="U5_Onp9Ch5R1h0iRhutX-248">
          <mxGeometry relative="1" as="geometry" />
        </mxCell>
        <mxCell id="U5_Onp9Ch5R1h0iRhutX-250" value="Security Group" style="fontStyle=0;verticalAlign=top;align=center;spacingTop=-2;fillColor=none;rounded=0;whiteSpace=wrap;html=1;strokeColor=#FF0000;strokeWidth=2;dashed=1;container=0;collapsible=0;expand=0;recursiveResize=0;" vertex="1" parent="U5_Onp9Ch5R1h0iRhutX-245">
          <mxGeometry x="75" y="60" width="100" height="210" as="geometry" />
        </mxCell>
        <mxCell id="U5_Onp9Ch5R1h0iRhutX-251" value="&lt;div&gt;Virtual machine&lt;/div&gt;" style="image;sketch=0;aspect=fixed;html=1;points=[];align=center;fontSize=12;image=img/lib/mscae/Virtual_Machine.svg;" vertex="1" parent="U5_Onp9Ch5R1h0iRhutX-245">
          <mxGeometry x="95.93153846153845" y="89.99883720930234" width="58.139534883720934" height="53.48837209302326" as="geometry" />
        </mxCell>
        <mxCell id="U5_Onp9Ch5R1h0iRhutX-252" value="&lt;div&gt;Virtual machine&lt;/div&gt;" style="image;sketch=0;aspect=fixed;html=1;points=[];align=center;fontSize=12;image=img/lib/mscae/Virtual_Machine.svg;" vertex="1" parent="U5_Onp9Ch5R1h0iRhutX-245">
          <mxGeometry x="95.93153846153845" y="189.99767441860467" width="58.139534883720934" height="53.48837209302326" as="geometry" />
        </mxCell>
        <mxCell id="U5_Onp9Ch5R1h0iRhutX-253" style="edgeStyle=orthogonalEdgeStyle;rounded=0;orthogonalLoop=1;jettySize=auto;html=1;startArrow=classic;startFill=1;strokeColor=default;curved=1;" edge="1" parent="1" target="U5_Onp9Ch5R1h0iRhutX-220">
          <mxGeometry relative="1" as="geometry">
            <mxPoint x="425" y="880" as="sourcePoint" />
          </mxGeometry>
        </mxCell>
        <mxCell id="U5_Onp9Ch5R1h0iRhutX-254" style="edgeStyle=orthogonalEdgeStyle;rounded=0;orthogonalLoop=1;jettySize=auto;html=1;startArrow=classic;startFill=1;curved=1;" edge="1" parent="1" source="U5_Onp9Ch5R1h0iRhutX-260" target="U5_Onp9Ch5R1h0iRhutX-220">
          <mxGeometry relative="1" as="geometry">
            <Array as="points">
              <mxPoint x="425" y="800" />
            </Array>
          </mxGeometry>
        </mxCell>
        <mxCell id="U5_Onp9Ch5R1h0iRhutX-256" value="" style="edgeStyle=orthogonalEdgeStyle;rounded=0;orthogonalLoop=1;jettySize=auto;html=1;startArrow=classic;startFill=1;curved=1;" edge="1" parent="1" source="U5_Onp9Ch5R1h0iRhutX-224" target="U5_Onp9Ch5R1h0iRhutX-257">
          <mxGeometry relative="1" as="geometry">
            <mxPoint x="155" y="710" as="sourcePoint" />
            <mxPoint x="425" y="910" as="targetPoint" />
            <Array as="points" />
          </mxGeometry>
        </mxCell>
        <mxCell id="U5_Onp9Ch5R1h0iRhutX-257" value="&lt;div&gt;Internet&lt;/div&gt;&lt;div&gt;gateway&lt;/div&gt;" style="sketch=0;outlineConnect=0;fontColor=#232F3E;gradientColor=none;fillColor=#8C4FFF;strokeColor=none;dashed=0;verticalLabelPosition=bottom;verticalAlign=top;align=center;html=1;fontSize=12;fontStyle=0;aspect=fixed;pointerEvents=1;shape=mxgraph.aws4.internet_gateway;" vertex="1" parent="1">
          <mxGeometry x="116" y="760" width="78" height="78" as="geometry" />
        </mxCell>
        <mxCell id="U5_Onp9Ch5R1h0iRhutX-259" value="" style="edgeStyle=orthogonalEdgeStyle;rounded=0;orthogonalLoop=1;jettySize=auto;html=1;startArrow=classic;startFill=1;strokeColor=default;curved=1;" edge="1" parent="1" source="U5_Onp9Ch5R1h0iRhutX-238" target="U5_Onp9Ch5R1h0iRhutX-258">
          <mxGeometry relative="1" as="geometry">
            <mxPoint x="425" y="710" as="sourcePoint" />
            <mxPoint x="425" y="910" as="targetPoint" />
          </mxGeometry>
        </mxCell>
        <mxCell id="U5_Onp9Ch5R1h0iRhutX-258" value="&lt;div&gt;Internet&lt;/div&gt;&lt;div&gt;gateway&lt;/div&gt;" style="sketch=0;outlineConnect=0;fontColor=#232F3E;gradientColor=none;fillColor=#8C4FFF;strokeColor=none;dashed=0;verticalLabelPosition=bottom;verticalAlign=top;align=center;html=1;fontSize=12;fontStyle=0;aspect=fixed;pointerEvents=1;shape=mxgraph.aws4.internet_gateway;" vertex="1" parent="1">
          <mxGeometry x="386" y="760" width="78" height="78" as="geometry" />
        </mxCell>
        <mxCell id="U5_Onp9Ch5R1h0iRhutX-261" value="" style="edgeStyle=orthogonalEdgeStyle;rounded=0;orthogonalLoop=1;jettySize=auto;html=1;startArrow=classic;startFill=1;curved=1;" edge="1" parent="1" source="U5_Onp9Ch5R1h0iRhutX-246" target="U5_Onp9Ch5R1h0iRhutX-260">
          <mxGeometry relative="1" as="geometry">
            <mxPoint x="695" y="710" as="sourcePoint" />
            <mxPoint x="425" y="930" as="targetPoint" />
            <Array as="points">
              <mxPoint x="695" y="800" />
            </Array>
          </mxGeometry>
        </mxCell>
        <mxCell id="U5_Onp9Ch5R1h0iRhutX-260" value="&lt;div&gt;Internet&lt;/div&gt;&lt;div&gt;gateway&lt;/div&gt;" style="sketch=0;outlineConnect=0;fontColor=#232F3E;gradientColor=none;fillColor=#8C4FFF;strokeColor=none;dashed=0;verticalLabelPosition=bottom;verticalAlign=top;align=center;html=1;fontSize=12;fontStyle=0;aspect=fixed;pointerEvents=1;shape=mxgraph.aws4.internet_gateway;" vertex="1" parent="1">
          <mxGeometry x="656" y="760" width="78" height="78" as="geometry" />
        </mxCell>
      </root>
    </mxGraphModel>
  </diagram>
</mxfile>
